<svg xmlns="http://www.w3.org/2000/svg" viewBox="779 -689 6900 1525"><style><![CDATA[.C{fill:#2b93d1}.G{fill:#28b24c}.J{fill:#ec2227}]]></style><g transform="translate(0 -285)"><linearGradient  x1="779" x2="779.556" y1="1481" y2="1480.169" gradientUnits="userSpaceOnUse"><stop offset=".11" stop-color="#f9a51a"/><stop offset=".211" stop-color="#fcb90f"/><stop offset=".34" stop-color="#fecc04"/><stop offset=".429" stop-color="#ffd300"/><stop offset=".835" stop-color="#f89c1c"/></linearGradient><linearGradient  x1="779" x2="779.925" y1="1481" y2="1480.621" gradientUnits="userSpaceOnUse"><stop offset=".093" stop-color="#ec1c24"/><stop offset=".171" stop-color="#ef4022"/><stop offset=".254" stop-color="#f15f21"/><stop offset=".325" stop-color="#f27220"/><stop offset=".374" stop-color="#f37920"/><stop offset="1" stop-color="#ee4023"/></linearGradient><linearGradient  x1="779" x2="778.173" y1="1481" y2="1480.437" gradientUnits="userSpaceOnUse"><stop offset=".11" stop-color="#98c93c"/><stop offset=".221" stop-color="#9ecb3b"/><stop offset=".429" stop-color="#a5cd39"/><stop offset=".835" stop-color="#80c242"/></linearGradient><linearGradient  x1="779" x2="779.702" y1="1481" y2="1480.288" gradientUnits="userSpaceOnUse"><stop offset=".093" stop-color="#62ba46"/><stop offset=".202" stop-color="#7ec241"/><stop offset=".303" stop-color="#91c73d"/><stop offset=".374" stop-color="#98c93c"/><stop offset="1" stop-color="#62ba46"/></linearGradient><linearGradient  x1="779" x2="779.411" y1="1481" y2="1481.912" gradientUnits="userSpaceOnUse"><stop offset=".11" stop-color="#31baec"/><stop offset=".197" stop-color="#41c0ef"/><stop offset=".334" stop-color="#54c7f3"/><stop offset=".429" stop-color="#5bcaf4"/><stop offset=".835" stop-color="#31baec"/></linearGradient><linearGradient  x1="779" x2="779.553" y1="1481" y2="1480.167" gradientUnits="userSpaceOnUse"><stop offset=".093" stop-color="#0fa8e0"/><stop offset=".1" stop-color="#10a9e1"/><stop offset=".262" stop-color="#1bbcee"/><stop offset=".374" stop-color="#1fc3f3"/><stop offset="1" stop-color="#00a6e0"/></linearGradient><linearGradient id="G" x1="1412.041" x2="1706.898" y1="1122.167" y2="677.717" gradientUnits="userSpaceOnUse"><stop offset=".093" stop-color="#0fa8e0"/><stop offset=".1" stop-color="#10a9e1"/><stop offset=".262" stop-color="#1bbcee"/><stop offset=".374" stop-color="#1fc3f3"/><stop offset="1" stop-color="#00a6e0"/></linearGradient><path d="M2827 407.2l-7.3 5.4c-6.5 5.9-12.9 12-19.2 18.2-18.5 18.2-36.7 36.7-57.2 52.8-6.7 5.2-13.9 9.7-21.3 13.7-5.3 2.9-9 1.1-12.1-4.2l-2.1-4c-1.6-2.9-3.7-5.1-7.5-5.5-6.9 1.1-12.4 5.5-17.8 9.9l-42.8 34.4c-29.7 22.9-60.4 44.2-91.9 64.5-51.1 32.9-103.8 62.9-158 90.4-28.5 14.5-57.1 28.6-86.2 41.8-37.8 17.2-76 33.7-114.3 49.8-44.4 18.6-90.1 34-136.7 46.5-28.5 7.7-57.5 13.9-86.2 20.7l-22.3 4.8v.5s-.1 0-.1-.1c-.9 0-1.7 0-2.5.1l-35.3 6.2s-.1 0-.1-.1l-19.9 3.1c-.1-.1-.2-.1-.3-.2l-40 4.9v.2l-13.9 1.5v.3s-.1 0-.1-.1l-14.9 1.2-14 1.1-13.8 1c-.1 0-.1-.1-.2-.1l-22.1 1.1c-.3.2-.7.3-1.1.3.3-.1.8-.2 1.1-.3l-22.9.8c.1.1.2.1.2.2-.1 0-.2 0-.2-.1-2.4.1-4.7.1-7.1.1-.4 0-.8.1-1.3.1l-70.4-.2c-.1 0-.2-.1-.3-.1l-23-1.1.2.2c-.1 0-.1-.1-.2-.1l-26.7-1.9c-.1 0-.2-.1-.3-.1l-36.8-3.2-.1.1c-.8-.3-1.5-.7-2.2-.8l-32.4-4-25.5-3.2-13.1-2.5-26.7-4.5c-.8-.3-1.5-.7-2.3-.9l-72.9-16.1c-5.7-1.3-11.5-2.5-16.9-4.2l-34.7-10.9c-.2-.1-.3-.2-.5-.2h-.4c-2.3-.8-4.4-1.8-6.5-2.4l-39.7-13.2.3.6c-.2-.2-.4-.5-.6-.7-1.1-.6-2.3-1.3-3.5-1.7-37.7-13.7-74.4-29.6-110.3-47.3-10.1-4.9-20.1-10.1-30.2-15.2-5.7-3.3-11.6-6.4-17.2-10.1-19.2-11.9-38.6-23.4-57.4-36-15.9-10.6-30.9-22.5-46.3-33.8-.1-.1-.3-.2-.4-.3-.4-.5-.8-1.1-1.3-1.5-20.1-16-38.5-33.8-55.5-53.1-9.1-10.6-18.3-21.2-26.8-32.4-1.4-1.8-2.8-3.7-5.1-4.5-.1 0-.3-.1-.4-.1a12.81 12.81 0 0 0-1.1-2l-18-26.1c-5.3-8.1-10.3-16.5-15.4-24.8-.9-2-1.7-4-2.6-5.8-6.5-13.3-13.3-26.3-19.4-39.8-5.5-12.3-10.1-24.9-15.1-37.3-.3.7-.8 1.5-.7 2.1l8.9 39.5c2.4 9.9 5.6 19.6 8.5 29.4 0 .2.1.4.2.6 0 .1.1.2.1.3v-.1s0 .1.1.1l9 27.8c1.4 4.1 3.3 8.1 5 12.2h-.1c0 .7-.1 1.4.1 2l16.9 39.9h-.1l11 23 10 19 .1.1c1.1 2.5 2.1 5.1 3.3 7.6l5.7 11.4 8 13 2 2c.1.2.3.4.4.7 1.2 2.5 2.5 4.9 3.7 7.3l3 6 7 10 5.8 8.7v1.3l10 15 9 12c1.3 1.7 2.7 3.3 4 5h.2c.3.6.7 1.2.9 1.9l13 17 12 14h.1l-.1.1c2 2.7 4 5.3 6.1 7.7l14.9 16.9v.4c.3.7.7 1.3 1 2 2.1 1.9 4.2 3.7 6.1 5.7 4 4 7.9 8.2 11.9 12.3l9 10 16 16 6 5c.5.6.9 1.4 1.6 1.9l14 12.2c.7.7 1 1.9 1.5 2.9l7 5.1 19 16 9 7c2.5 1.7 5.1 3.4 7.5 5.3 3.6 2.7 7 5.7 10.5 8.6l9.9 6.4 17.1 11.6 19.8 13.2 11.2 7.8c.8.2 1.6.4 2.3.8l19.7 11.2 22 12 32 16 11.7 4.9c.1 0 .1.1.2.1 4.7 2.2 9.4 4.6 14.2 6.6l28.8 11.4c.1 0 .2.1.3.1l.1.1h.1l23.4 8.8c.5.4 1 .6 1.5.3l16.2 5.7c5 1.8 10.1 3.2 15.2 4.7.1.1.1.2.2.3 6 2 12.1 4.2 18.2 5.9 8.9 2.5 17.9 4.7 26.8 7.1l14.1 4 25.9 6c4.5.9 8.9 1.9 13.4 2.6l24.3 3.9c.9.6 1.9 1.2 2.8 1.8 7.5 2.3 15.3 3 23 4.2 6.2 1 12.3 2.9 18.7 2.2.2-.3.4-.6.5-.9.1.1.2.1.3.2 4.4 3.3 9.8 2.7 14.5 3.2 2.8.4 5.7 1.7 8.5.1.6.4 1.3.7 2 1 6.1 1.6 12.3 1.7 18.5 2.2 2.6.2 5.4 1.6 7.9-.1.6.3 1.3.5 2 .7 6.7 1.5 13.5 1.6 20.3 1.9 9.2.4 18.5 2.5 27.8.9.5-.5.9-.9 1.1-1.3.2.1.3.3.5.4 7.9 3.8 16.1 3.4 24.2 1.2.7.4 1.4.7 2.2.9 4.1.2 8.5 1.5 12.4-1 0 .4.2.9 1 1.6 1.3.7 2.8.8 4.3.8 18.1.6 36.1-1 54.2-1.3.8-.3 1.5-.5 2-1 8.6 2.9 17.1.8 25.5-1.2v.1c.3.7 1 .9 1.6 1.1 12.8.1 25.6-1.1 38.3-2.2 4.3-.3 8.7.6 12.8-1.5.4-.7.5-1.2.4-1.5 8.1 3.2 16 .4 23.9-1 .4-.4.6-.8.8-1.2.1.1.2.1.3.2.7.8 1.7 1.3 2.7 1.3 7.4-.7 14.9-.4 22.1-2.9.3-.7.4-1.1.2-1.4 5.7 2.9 11.2.7 16.8-.8.3-.5.3-.9.2-1.2 3.2 2.3 6.3.9 9.5-.2.2-.3.3-.6.3-.9 0 0 .1.1.2.1l20-2.5c2-.3 4-.8 6-1.3.6.3 1.3.6 2 .9 8.4-.9 16.8-1.4 24.9-4.1.1-.4.1-.8.1-1.1 4.4 1.9 8.5 1.1 12.3-1.6l1.5.6c7.3-.4 14.4-1.4 21.3-4 .1-.2.2-.5.2-.7.9.5 1.8.4 2.6.1-.4-.5.7-.1.1 0-.8.8-2.5.2-2.7 1.7v.2l-29.3 7.8c-1 .2-2 .2-2.9.5l-18.1 4.5-23.9 6v.1l-.1-.1c-1.4.3-2.9.6-4.3 1l-23.7 6-9.2 1.6-34.8 7.4-26 5-24.2 4.2c-4.6.8-9.2 1.9-13.8 2.8-2.3.3-4.5.7-6.8 1l-25.3 3.2c-2.7.4-5.3 1.2-7.9 1.8l.1.1c-.1 0-.1-.1-.2-.1l-23.1 2.2-17.1 2-26 2.8c-5.1.5-10.2.7-15.3 1.1l-40.4 2.9-32.4 1c-3.6.1-7.2-.2-10.7.1-2 .1-3.9 1.2-5.9 1.8h64.3c1.3 0 2.5-.6 3.7-.9h-.1l32.3-1 40.7-2 21.3-1.1c5.6-.4 11.1-1.2 16.7-1.9v-.1l.1.1c6.2-.4 12.5-.6 18.6-1.2 8.5-.8 16.9-1.9 25.4-2.9l37-4.9c1.5-.1 3-.1 4.4-.3l25.6-3.8c2.6-.4 5.2-.6 7.8-1.1l39.2-6.9c1.9-.3 3.9-.5 5.8-.9l22.2-5v-.1s.1 0 .1.1l24-5 22.9-5c1.4-.3 2.9-.6 4.3-1l26.4-6.9h.1l15-4v-.3l.2.2 11-3 10.8-3-.6-.6c.3.1.6.3.8.4l12.8-3.9h.1c3.5-1 7.1-1.8 10.5-3 6.6-2.2 13.1-4.6 19.6-6.9l16.9-5.1s.1 0 .1.1l31-11c-.1-.1-.3-.2-.4-.3.2.1.3.2.5.3 2.6.4 4.9-.8 7.2-1.7 36.6-13.8 72.7-29 108-45.9 33.5-16 66.3-33.5 98.3-52.3 54.9-32.2 107.4-68.2 157.4-107.6 21.3-16.7 42.2-34 62.6-51.9l32.1-28.5 28.5-26.4c.4-1 .6-2.2 1.3-2.9 2.7-2.7 5.7-5.2 8.4-7.9L2711 664c1.6-1.7 2.4-4.3 3.6-6.5l-.9-1.2c-2.3.2-4.6.1-6.7.8-3.5 1.1-7 2.4-10.2 4.1-17.3 9.3-34.9 18.2-51.7 28.2L2502 775.8c-8.1 4.9-16.5 9.2-24.8 13.8-1.5-1.1-2.9-.3-4.1.6-2.9 2.2-6.2 3.8-9.4 5.6-13.4 7.4-26.9 14.5-41.5 19.3-4.1 1.4-8.3 2.5-12.7 2.3-5.7-.3-7.6-4-4.5-8.8 1.5-2.4 3.7-4.2 5.9-6 8.6-6.8 18.3-12 28.1-16.9 11.5-5.8 21.2-14.6 33-20l-4.7-1.3c2.5-3.2 1.8-6.4.6-9.6-5.2-7.7-13.1-8.4-21.5-8.1 2.6-6.9 8.1-10.2 13.4-13.5l80.4-51.4c51.7-33.9 102.3-69.4 149.6-109.4 28.3-23.9 54.3-50.1 79.6-77.1 1.2-1.3 2.8-2.5 2.6-4.6.7-1.3 1.3-2.7 2.2-3.8 18.2-21.9 34.2-45.5 49.3-69.6 1.8-2.8 3.1-6 4.6-9-.3-.4-.7-.7-1.1-1.1z" fill="url(#G)"/><linearGradient id="H" x1="1517.512" x2="1895.339" y1="-97.203" y2="741.576" gradientUnits="userSpaceOnUse"><stop offset=".11" stop-color="#31baec"/><stop offset=".197" stop-color="#41c0ef"/><stop offset=".334" stop-color="#54c7f3"/><stop offset=".429" stop-color="#5bcaf4"/><stop offset=".835" stop-color="#31baec"/></linearGradient><path d="M861.9 397.6c-2.6 0-5.7 1.8-9.3 5.2-2.4 2.2-5.2 4.1-7.6 6.4-30 27.9-45 63.7-54.3 102.6-3.4 14.2-2.4 29.2-8 42.9v28c.6.9 1.5 1.6 1.6 2.5 4.5 38.4 13.3 75.4 34.5 108.5 1.2 1.8 1.8 3.4-.2 5.3-7.6 7.3-6.1 16.4-4.7 25.3 2.2 14.3 7.6 27.6 14 40.5 30.7 61.9 78.5 109.9 130 153.9 57.9 49.4 122.6 86.4 191.7 114.8-44.4-18.7-86.9-40.8-127.2-67.2-26.2-17.2-51.1-36.2-74.6-56.9-.8-.7-1.5-1.7-2.2-2.5 2.2-1.8 3.7-.1 5.2 1 5.4 3.9 10.3 8.4 15.7 12.2 2.1 1.8 4.1 3.7 6.5 5.2 6.9 5 13.7 10.1 20.8 14.8 3.7 2.3 6.9 5.3 10.9 7.2 6.6 4.4 13.1 9 20 12.9 9.5 5.9 19.2 11.4 28.9 16.9 4.3 2.5 8.9 4.4 13.1 7.1 7.9 4.2 15.9 8 23.9 12 7.4 4.1 15.4 7.1 23 10.9l12 5.1a194.52 194.52 0 0 0 14.2 6c11.4 4.5 22.7 9.5 34.5 13.1 57.8 21 117 36.3 177.5 47.3 31.6 5.8 63.5 10.2 95.4 13.6 22.2 2.4 44.4 4.2 66.6 5.4 26.7 1.5 53.5 2.8 80.3 3.1 7.6.1 15.2.7 22.8.8 1.8-.6 3.5-1.5 5.3-1.6 3.5-.3 7.1 0 10.7-.1l32.4-1 55.7-4c8.7-.8 17.3-1.8 26-2.8l17.1-2 23.1-2.2c.1 0 .1.1.2.1l-.1-.1c2.6-.6 5.2-1.4 7.9-1.8 8.4-1.2 16.9-2.1 25.3-3.2 2.3-.3 4.5-.7 6.8-1l13.8-2.8 24.2-4.2 26-5 34.8-7.4c3.1-.6 6.1-1.1 9.2-1.6l23.7-6c1.4-.4 2.9-.7 4.3-1l.1.1v-.1l23.9-6 18.1-4.5c.9-.3 1.9-.3 2.9-.5l29.3-7.8v-.2c.2-1.5 1.9-.9 2.7-1.7.6-.1-.5-.5-.1 0-.8.4-1.7.5-2.6-.1-.1.2-.1.4-.2.7-6.9 2.6-14 3.6-21.3 4-.5-.1-1-.3-1.5-.6-3.8 2.7-7.9 3.5-12.3 1.6 0 .3 0 .7-.1 1.1-8.1 2.7-16.5 3.2-24.9 4.1-.7-.3-1.3-.6-2-.9-2 .5-4.1 1-6 1.3l-20 2.5s-.1-.1-.2-.1l-.3.9c-3.2 1.1-6.3 2.5-9.5.2.1.3.1.7-.2 1.2-5.6 1.5-11.1 3.7-16.8.8.1.3.1.7-.2 1.4-7.2 2.5-14.7 2.2-22.1 2.9-1 0-2-.5-2.7-1.3-.1-.1-.2-.1-.3-.2-.2.4-.5.8-.8 1.2-7.9 1.4-15.8 4.2-23.9 1 .1.3 0 .8-.4 1.5-4.1 2.1-8.5 1.2-12.8 1.5-12.7 1.1-25.5 2.3-38.3 2.2-.6-.2-1.3-.4-1.6-1.1v-.1c-8.4 2-16.9 4.1-25.5 1.2-.5.5-1.2.8-2 1-18.1.3-36.1 1.9-54.2 1.3-1.5 0-3-.1-4.3-.8-.7-.7-1-1.2-1-1.6-4 2.5-8.3 1.2-12.4 1-.8-.2-1.5-.5-2.2-.9-8.1 2.2-16.2 2.6-24.2-1.2-.2-.1-.3-.3-.5-.4-.2.4-.6.8-1.1 1.3-9.3 1.6-18.6-.5-27.8-.9-6.8-.3-13.6-.4-20.3-1.9-.7-.2-1.4-.4-2-.7-2.5 1.6-5.3.3-7.9.1-6.2-.5-12.4-.6-18.5-2.2-.7-.3-1.4-.6-2-1-2.8 1.5-5.7.2-8.5-.1-4.7-.5-10.1.1-14.5-3.2-.1-.1-.2-.1-.3-.2-.1.3-.3.6-.5.9-6.4.7-12.5-1.2-18.7-2.2-7.7-1.2-15.5-1.9-23-4.2-1-.5-1.9-1.1-2.8-1.8l-24.3-3.9c-4.5-.7-8.9-1.7-13.4-2.6l-25.9-6c-4.7-1.2-9.4-2.7-14.1-4l-26.8-7.1c-6.1-1.7-12.2-3.9-18.2-5.9-.1-.1-.1-.2-.2-.3-5.1-1.6-10.2-2.9-15.2-4.7l-16.2-5.7c-.5.3-1 .1-1.5-.3l-23.4-8.8h-.1l-.1-.1c-.1 0-.2-.1-.3-.1l-28.8-11.4c-4.8-2-9.5-4.4-14.2-6.6-.1 0-.1-.1-.2-.1l-11.7-4.9-32-16-22-12-19.7-11.2c-.7-.4-1.5-.6-2.3-.8l-11.2-7.8c-2.6-1.8-5.2-3.5-7.8-5.2l-12-8-17.1-11.6-9.9-6.4c-3.5-2.9-6.9-5.9-10.5-8.6-2.4-1.9-5-3.6-7.5-5.3l-9-7-19-16-7-5.1c-.5-1-.8-2.2-1.5-2.9l-14-12.2c-.7-.5-1.1-1.3-1.6-1.9l-6-5-16-16-9-10-11.9-12.3c-1.9-2-4-3.8-6.1-5.7-.3-.7-.7-1.3-1-2v-.4l-14.9-16.9c-2.1-2.4-4.1-5-6.1-7.7l.1-.1h-.1l-12-14-13-17c-.3-.7-.6-1.2-.9-1.9h-.2c-1.3-1.7-2.7-3.3-4-5l-9-12-10-15v-1.3l-5.8-8.7-7-10-3-6c-1.2-2.5-2.5-4.9-3.7-7.3-.1-.2-.3-.4-.4-.7l-2-2-8-13-5.7-11.4c-1.2-2.5-2.2-5.1-3.3-7.6l-.1-.1-10-19-11-23h.1l-16.9-39.9c-.2-.6-.1-1.3-.1-2h.1c-1.7-4.1-3.6-8.1-5-12.2l-9-27.8s0-.1-.1-.1v.1c0-.1-.1-.2-.1-.3-.1-.2-.2-.4-.2-.6-2.9-9.8-6.1-19.5-8.5-29.4-3.3-13.1-6-26.3-8.9-39.5-.1-.6.4-1.4.7-2.1l-2.9-8.8c.2-.1.3-.2.5-.3-.4-.7-.7-1.5-.8-1.9 0-.1-.1-.2-.1-.4-4.5.6-5-4-5.8-7.9-1.6-6.9-4-10-7.3-10zm14.5 19.2s0 .3.1.6c0-.5 0-.7-.1-.6zm1957.3 14.8c-.1.1-.4.2-.6.3h-.1c.6-.3 1.1-.5.7-.3zm-125.2 94.2c-.1.2-.3.4-.4.5.1-.1.3-.3.4-.5zm-142.7 53.7l-4.1 4.1c1.9-1.2 3.7-2.5 5.6-3.7-.6-.2-1.1-.3-1.5-.4zm22.5 198.6l-6 5c.4-.3.7-.6 1.1-.9 1.6-1.4 3.2-2.7 4.9-4.1zM2570 793l-11.7 9.3-12.7 9.8c8.2-6.2 16.3-12.6 24.4-19.1zm-1265.5 6.1l.3.3c0-.1-.1-.2-.1-.3zm1154.7 74.5c-15.4 10.1-31.1 20-46.9 29.5 15.9-9.4 31.6-19.2 46.9-29.5zm-191.6 104.7l-23 9.9c1.4-.6 2.8-1.1 4.2-1.7 6.3-2.6 12.5-5.4 18.8-8.2zm-80.7 31.2c.1.1.3.2.4.3-.4.2-.8.3-1.3.4.4.1.9.2 1.4.6l3-1.2c-1 .2-1.9.3-3 .2-.2-.1-.4-.2-.5-.3zm-37.7 13.3l-10 3-13.4 4.8c4.4-1.4 8.9-2.9 13.3-4.5 3.4-1 6.8-2.2 10.1-3.3zm-38.4 12.4c-.6.2-1.1.3-1.7.4h-.1c-2.8.8-5.5 1.7-8.3 2.6l8.3-2.4zm-15.4 4l.4.4c.1 0 .2 0 .3-.1-.2-.1-.5-.2-.7-.3zm-93.8 24.4l-19.4 4c6.5-1 13-2.5 19.4-4zm-20.3 4.1z" fill="url(#H)"/><path d="M2187.317 1010.766l61.4-24.288c10.107-4.102 20.108-8.8 30.003-13.388 16.8-7.9 33.787-15.6 50.297-24.208 22.198-11.6 44.105-23.708 65.986-35.905 28.4-15.794 55.8-33.3 82.496-51.803a2380.88 2380.88 0 0 0 62.9-45.192c14.605-10.794 28.707-22.302 42.9-33.787 9.604-7.805 18.997-16.007 28.3-24.208l37.094-33.098 23.892-21.802c2.698-2.408 5.794-4.206 8.705-6.298l39.502-20.106c3.096-1.587 6.403-2.595 11.112-1.5-1.2 2.592-1.8 5-3.307 6.694-7.408 7.9-14.8 15.797-22.595 23.3-12.1 11.6-24.606 22.913-36.988 34.3-27.5 25.2-55.8 49.503-85 72.707-33.893 26.987-68.8 52.492-105.012 76.306-66.5 43.788-136.206 81.4-209.388 112.7-51.1 21.908-103.292 40.5-156.7 56.092-44.2 12.912-88.9 23.708-134.195 32.2-28.6 5.293-57.308 9.8-86.094 13.997-18.388 2.698-36.9 4.7-55.5 6.298l-78.607 6.112a835.29 835.29 0 0 1-47.386 2.01l-125.887.502c-23.6-.212-47.2-2.1-70.696-3.5-13.9-.795-27.887-1.906-41.804-3.413a1204.14 1204.14 0 0 1-46.487-5.689c-17.4-2.408-34.898-4.788-52.202-8.095-28.813-5.6-57.705-11.405-86.2-18.3-43.497-10.6-86.306-24.607-128.004-41.592-48.1-19.606-94.1-42.996-137.502-71.5-26.193-17.198-51.1-36.195-74.612-56.912-.794-.686-1.508-1.694-2.196-2.486 2.196-1.8 3.704-.106 5.212 1.005 5.397 3.9 10.292 8.388 15.7 12.197 2.1 1.8 4.1 3.703 6.5 5.213 6.906 5 13.705 10.107 20.796 14.8 3.704 2.302 6.906 5.3 10.9 7.197 6.588 4.392 13.097 8.996 20.002 12.912 9.498 5.9 19.208 11.402 28.892 16.905 4.313 2.5 8.9 4.392 13.097 7.1 7.9 4.208 15.9 7.992 23.892 12.013 7.408 4.102 15.4 7.1 22.992 10.9l12.012 5.107c4.7 2.196 9.393 4.208 14.208 6.005 11.403 4.498 22.7 9.5 34.5 13.098 57.8 21.007 116.997 36.3 177.507 47.305 31.6 5.796 63.5 10.214 95.408 13.6a1226.75 1226.75 0 0 0 66.595 5.397c26.696 1.5 53.498 2.805 80.3 3.097 7.593.104 15.293.686 22.913.792h61.303c2 0 3.995-.106 5.9-.7 3.598-.6 7.302-.396 10.9-.502 20.187-.2 40.4-1.588 60.6-2.805 13.097-.792 26.087-1.694 39.2-3 14.8-.795 29.395-2.9 44.105-4.102 12.4-1.295 24.8-2.9 37.094-4.894 10-1.005 19.896-2.9 29.792-4.102 15.7-2.196 31.3-5.397 46.9-7.9 9.498-1.588 18.9-3.6 28.3-5.7 8.096-1.1 16.007-3.2 23.9-5 7.7-1.507 15.187-3.597 22.913-5.213l31-7.805c5-1.507 9.896-3.095 15.002-4.206 3.704-.795 7.408-1.694 11.112-2.805 3.704-1.005 7.302-2.012 10.9-3.2l13.203-3.812c10-3.095 20.108-6.112 30.1-9.708 5.6-1.694 11.112-3.706 16.695-5.503 8.9-2.805 17.5-6.112 26.3-9.2 1.64-.74 3.228-1.932 5.133-.634zM2468.3 755.764c-6.8-5.7-14.287-8.8-24.2-5.503 2.196-6.192 5.212-10.294 9.7-13.205l30.2-19.207 88.608-57.995c26.008-17.7 51.408-36.195 76.702-55.007 13.494-10 26.3-21.194 39.2-31.987 8.6-7.197 17.198-14.606 25.294-22.4l41.1-40.108c6.006-6.005 11.5-12.402 17.198-18.6 4.895-4.208 10.107-8.204 14.7-12.596l45.296-43.786c3.8-3.6 7.9-6.8 11.906-10.214.503.396.9.686 1.402 1.1-1.1 2.3-1.8 4.786-3.2 6.798l-25.506 38.8c-20.7 30.4-45.2 57.6-71.7 82.998-31.6 30.4-65.695 57.9-101 83.793-48.392 35.613-99.006 68.1-149.7 100.302-8.6 5.847-17.303 11.325-26.008 16.825zm9.208 34.898l-12.012 6.508c-6.5 3.493-12.806 7.49-19.5 10.6-7.9 3.706-16.113 6.907-24.288 9.895-3.704 1.297-7.7 1.5-11.6 2.1-3 .4-5.503-.792-7.594-3.49-.106-1.19-.2-2.696-.3-4.998 2.408-2.49 4.604-6.005 7.805-8.098 9.102-6.005 18.494-11.59 27.887-17.094 10-5.793 20.293-11.1 29.2-19.288h5.212c5.212 0 8.996 2.91 12.4 6.298 2.487 2.408 2.487 6.295.106 9.5-1.587 2.1-3.704 3.703-5.503 5.61-.635.58-1.138 1.56-1.852 2.46z" class="C"/><path d="M982.34 600.772c-2.805-2.698-5.9-5.104-8.387-8.095l-20.002-24.5c-1.005-1.295-2.302-2.302-3.492-3.49-4.207-3.812-7.197-8.6-10.398-13.205-9.102-13.202-17.806-26.694-25.61-40.69-11.906-21.406-22.198-43.604-31.194-66.41-2.1-5.397-4.313-10.794-5-16.59l-2.9-8.8c2.9-1.587 5.688-3.307 8.996-5.2l6.112 17.01c9.7 27.2 20.293 54.105 33.4 79.903 15.4 30.4 34 58.604 55.297 85.088 1.19 1.587 2.1 3.3 3.2 5z" fill="#2c93d1"/><linearGradient id="I" x1="1413.1" x2="2012.476" y1="753.444" y2="145.254" gradientUnits="userSpaceOnUse"><stop offset=".093" stop-color="#62ba46"/><stop offset=".202" stop-color="#7ec241"/><stop offset=".303" stop-color="#91c73d"/><stop offset=".374" stop-color="#98c93c"/><stop offset="1" stop-color="#62ba46"/></linearGradient><path d="M2926.7-87.9c-4.8 2-8.6 5.3-12.3 8.9-10.2 9.9-18.1 21.8-25.8 33.6-34.1 52.1-75.6 97.5-123.1 137.7-42 35.6-86.8 67.5-133.1 97.1C2545.3 245 2454.1 293 2361 337.5l-64.4 30.3-.1-.1-28.2 12.5-10.9 4.5.2.2c-.1 0-.1-.1-.2-.1l-18.9 7.9-.2-.2-21 8.2.1.1-30.9 11.8v.1l-.1-.1-20 7.1-32.9 11 .1.1c-.1 0-.1 0-.2-.1l-32 10-42.1 11.9c-.1.1-.2.1-.2.2l-23.8 6-22.8 5.8-.1-.1-10 2.1s0 .1.1.1l-13 2.9v.1l-.1-.1c-4.4.9-8.8 1.9-13.1 2.9h.1s-.1 0-.1.1l-22.8 4.2-.1-.1-11 2-25 4.1-12.2 1.9-22.8 3.1h-.1s0-.1.1-.1l-26 2.9c-.1 0-.1.1-.1.1-3.4.3-6.6.7-9.7 1.1-.1 0-.2.1-.3.1v-.2l-16.8 1.4-12.9 1.3c-.1 0-.1-.1-.2-.1l-26.8 1.3c-.1 0-.1-.1-.2-.1l-28 1h-27.9l.3.6-.4-.4-20.3-.5-36.7-1.6c-.3.6-.4 1.1-.4 1.6l-24.7-2.1.1.1c-.1 0-.1-.1-.2-.1l-31-3.8-18.8-2.9c-.1 0-.2-.1-.3-.1l-25.9-4.9-17-3.4.1.1-25-6.1v.1l-.1-.1-26-7.6-25-8.1-27-10.2c-5.5-2.5-11.1-4.8-16.7-7.2l-.1-.1-38.1-18.6s0 .1-.1.1v-.1l-28.7-16.7c-.1-.1-.1-.2-.2-.2-1.3-1-2.6-2-4-2.9-32.2-20.9-62.2-44.5-87.8-73.3-2.6-1.4-3.6-4.2-5.5-6.3-16.5-17.9-31.3-37.1-44.7-57.4-.9-1.4-1.7-2.9-3.3-3.7-.5-.1-1-.3-1.4-.5l-17.3-29-.1-.1-15.7-33.2c-2-4.3-4.2-8.5-6.3-12.8-.6-2.1-1.2-4.3-2.1-6.6l-9.8-25.1-6.2-21.5-9.9-38.6c-.3 2-1 4.1-.9 6.1.1 3.6.6 7.2.9 10.8.1 1.9.1 3.7.3 5.5.8 6.5 3.8 25.9 4.7 32.4l2 11 2.7 10.9c-.1.5 0 .9.3 1.2l2 12 3 11 3 8 4 14 3 7.9c-.1 0-.1 0-.2.1-.3.5-.4.9-.5 1.4 1.4 6.8 4.4 13.1 6.7 19.7 1.4 2.8 1.9 6.1 4.2 8.5.5.5 1 .9 1.5 1.4l3.3 9.1 3 6c.3 1 .7 1.9 1 2.9l8 18 3 5c.3 1 .7 2 .9 3l5 10 5 9a74.55 74.55 0 0 0 2 4h.1l6.1 11.1 5.8 8.7v1l2.9 4.6 10.1 15.2v.4c.3 1 .7 2 1 3l10 15 11 15 11.1 15 11 14 11 13 27 30 23 23c1.5 1.3 3 2.5 4.4 3.9l14.6 14.1c1.7 1.2 3.6 2.3 5.2 3.7l26.9 23.2 13.9 10.1 28 20 12 8 10 6.9c1 .7 2 1.4 2.9 1.9.8.4 1.8.6 2.6 1.1l16.1 8.8.4.4 6 4 15 8v-.1l25.9 13s0-.1-.1-.2l.1.1 15.4 7.9c3.4 1.6 7.1 2.8 10.6 4.1h.1v.1l16.2 7.1c3 1.4 6.1 2.8 9.2 4l25.6 8.9c.1.1.2.1.5.2l19.5 6.8 27 8h-.1.2c.5.3.9.5 1.3.4l13.5 3.6 21 5c0-.1-.1-.2-.1-.3.1.1.2.2.2.3l22.9 5 22 4c0-.1-.1-.1-.1-.2l.2.2 19 3c1 .5 2.1.8 3.1.4l11.9 1.6c.3.3.7.9 1.1.9l26.9 2.1c.2.1.3.1.4.1.2.1.3 0 .4 0l11.2.9c.7.4 1.4 1 2.1 1l27.9 1c.4.3.8.9 1.2 1h26.9l9.7 8.9c1.3.2 3.6 2.8 2.5 2.4 3.6 3.4 6.3 6.1 6.5 6.8-.2 0-.4 0-.6-.1l.1.1c.8.1.9.1 1.4.5l29.5-4.2 51.8-8.3c20.9-3.9 41.7-8.3 62.5-13.1 21.3-4.9 42.4-10.3 63.5-15.9 4.1-1.1 9-1 12.2-4.7l14-3 10.9-3 22.9-7s0 .1.1.1l9-3-.1-.1h.1l11-4 9.9-3v-.1s.1 0 .1.1c1.1-.2 2.2-.3 3.3-.7 5.9-2 11.8-4.2 17.7-6.3l21.1-8-.1-.1 23.3-9.6c5.3-2.3 10.5-4.8 15.7-7.3 1-.2 2-.1 2.8-.5l18.9-9.4c2.4-1.1 4.8-2.1 7.2-3.1v-.1s0 .1.1.1l28.1-14.1 17.8-9.9s-.1-.1-.1-.2c.1 0 .1.1.2.2l27-16c.8-.3 1.6-.4 2.3-.9l14.7-9.2v.1l17.9-12v-.1l.1.1 33-22 .4.4c2.2 0 3.7-1.5 5.3-2.6l55.6-39.1 85.1-59.6 70.5-50c31.7-21.3 64.8-40.2 98-59 3.7-2.1 6.8-4.7 9.1-8.3 9.9-15.3 12.4-32.3 10.8-50.2a315.96 315.96 0 0 0-4.8-33.6c-1.7-8.7 1.3-13.3 8.4-17.8 20.7-12.9 40.5-27 57-45.2 10.9-12 18.3-25.4 16.9-42.3-.2-3.3-1.1-6.5-.6-9.9 1.4-9.1 3.7-18 6.5-26.7 11.1-34 26.3-66.2 42.9-97.8 1-1.9 2.6-3.6 1.9-6-.1-.5-.4-1.1-.2-1.5 3-6.2 6.3-12.2 9-18.4 4.1-9.4 7.9-19 11.6-28.6.9-2.4 1.7-4.9-1-7.3zm-868.9 543.2c0 .1.1.2.1.2s-.1-.1-.1-.2c-.1 0 0 0 0 0zM1434.9 686s0 .1 0 0c0 .2.2.2.2.3-.1-.2-.1-.2-.2-.3zm.2.3c.4.4.4.5.8.9.1.1.2.2.3.2a39.01 39.01 0 0 0 3.6 2.2s.1 0 .2.1l1.4.3c-.1 0-.1-.1-.2-.1-.5-.2-1-.3-1.5-.5s-1.3-.9-1.8-1.4c-1-.7-2-1.3-2.8-1.7zm6.4 3.7c.3.2.6.4 1 .6.1 0 .1 0 .2-.1-.1-.1-.3-.2-.4-.3s-.3-.1-.4-.2c-.2.1-.3 0-.4 0zm.7.2c.2.1.4.2.7.2.1 0 .2-.1.3-.1-.4-.1-.7-.1-1.1-.2 0 .1.1.1.1.1zm.7.3c-.1 0-.1 0-.2.1.2.1.4.2.5.4.9.3 1.8.7 2.8 1.1.5.1 1.3.2 1.9.3-1.6-.7-3.3-1.3-5-1.9zm3.1 1.5c-.6-.1-1.1-.2-1.6-.2l.6.3c.9.3 1.8.6 2.7.8h.4c-.6-.4-1.4-.7-2.1-.9zm2.2.8c.2.1.3.1.5.2.7.1 1.5.2 2.3.2-.5-.2-1-.3-1.5-.5-.6.1-1.1.1-1.3.1zm.5.2c-.3 0-.6-.1-.9-.2-.2 0-.6-.1-1.6-.1.8.5 1.7 1 2.6 1.5l1.5-.6c-.6-.2-1-.4-1.6-.6zm1.6.6c1.1.4 2.6 1 3.8 1.5-.4-.4-.8-.9-1.3-1.3-.6-.2-1.1-.4-1.7-.5-.2.1-.5.2-.8.3zm-4.1-.9c-.4-.2-.8-.4-1.1-.6-.1 0-.2-.1-.3-.1.4.2.7.5 1.1.7zm-.4 0c-.5 0-1.1-.1-2.2-.1h.1c.4 0 1 .1 1.3.1h-1a59.39 59.39 0 0 0 4 1.7c.1 0 .2-.1.3-.1-.8-.5-1.6-1.1-2.5-1.6zm2.2 1.8c-.8.2-1.6.5-2.6.7l11 2.5c-.2-.3-.5-.6-.8-.9-1.4-.4-2.8-.7-4.1-1 .1 0 .1.1.2.1.3.2-.3 0-1.5-.4-.2 0-.6-.1-.7-.2-.2-.1-.3-.2-.5-.3-.2-.2-.6-.4-1-.5zm-3.2-2.5c-.1-.1-.2-.2-.4-.2-.1 0-.4-.1-.5-.1zm-.9-.4c-.6-.2-1.3-.5-1.9-.9-.1 0-.3.1-.4.1.6.4 1.1.6 2.3.8zm-2.3-.7c-.5-.3-1-.7-2.2-1.3l-1.7-.3.2.2c-.1-.1-.1-.1-.3-.2-.3-.1-.6-.1-.9-.2-.4-.3-1.3-.7-2-1.1-2.4-.6 1.2 1.2 5.9 3.3.3-.2.7-.3 1-.4zm-3.9-1.7c0 .1 0 .1 0 0-.2-.3-.1-.2-.4-.5-.1 0-.3-.1-.4-.1.3.3.4.3.8.6zm1.8.4c.2 0 .4.1.6.1h-.1c-.4-.1-.8-.3-1.2-.4.2.1.5.2.7.3zm3.7 1.3c-.2-.1-.3-.1-.5-.2.5.3 1 .6 1.6.9-.4-.2-.7-.5-1.1-.7zm-.7-.3c0 .1.1.1.2.1-.1 0-.1-.1-.2-.1zm-6.5-3.4c-.4-.3-.8-.6-1.2-1-.1.1-.2.2-.2.4.5.4 1.1.9 1.8 1.5.2.1.5.2.7.3-.7-.6-.6-.6-1.1-1.2zm15.9 5.7c-.2.1-.4.2-.7.4h1.1c-.1-.2-.3-.3-.4-.4zm1.6 2.5c.5.2 1 .4 1.5.7-.1-.1-.1-.2-.2-.2-.5-.2-.9-.4-1.3-.5zm441.3 18l.1.1c0-.1-.1-.1-.1-.1z" fill="url(#I)"/><linearGradient id="J" x1="1752.524" x2="867.758" y1="462.505" y2="-140.161" gradientUnits="userSpaceOnUse"><stop offset=".11" stop-color="#98c93c"/><stop offset=".221" stop-color="#9ecb3b"/><stop offset=".429" stop-color="#a5cd39"/><stop offset=".835" stop-color="#80c242"/></linearGradient><path d="M1141.7-28.4c-13.2 8.2-20.9 19.8-27.5 32-15.6 28.8-25.7 60-38 90.2-14.2 34.9-28.6 70.1-54.7 98.1-13 14-20.9 29.9-25.3 47.9-12.7 52.2-6 103.2 11.2 153.3 23.1 67.1 66.3 120.2 116.8 168.3 3.5 3.4 7.1 6.7 10.7 9.9 3.5 3 7 6 10.9 8.6 4.1 3.6 8.5 6.9 13 10 4.6 3.4 9.4 6.7 14.2 9.9 4.4 3.3 9 6.5 13.9 9.1 11.3 7.6 23 14.4 34.9 20.9 9.2 5.2 18.4 10.4 28 14.9 7.5 4 15.5 7.1 23.1 10.9 12.8 5.6 25.6 11.2 38.7 16 5.9 2.8 12.2 4.6 18.3 6.9 10.6 3.8 21.1 7.8 31.8 11 5.9 1.3 11.4 4.9 17.8 3 8.2-1.1 15.3-5.7 23.3-7.3 6.7-.7 13 .8 19.3 3.3 3.5 1.4 7.2 2.2 10.9 3.1l13.5 3.3c.5-.1 1-.3 1.4-.4l-4-1.7h1c-.3 0-.8-.1-1.3-.1h-.1c1 0 1.6.1 2.2.1-.4-.2-.7-.5-1.1-.7.1 0 .2.1.3.1l-.6-.3c.4.1.9.2 1.6.2-1-.4-2-.7-2.8-1.1.4.2.7.5 1.1.7-.6-.3-1-.6-1.6-.9.2.1.3.1.5.2-.2-.1-.4-.2-.5-.4.1 0 .1 0 .2-.1-.2-.1-.4-.2-.7-.2.1.1.3.2.4.3-.1 0-.1 0-.2.1.1 0 .1.1.2.1-.1 0-.2-.1-.3-.1h.1c-.3-.2-.7-.4-1-.6.1 0 .2 0 .3.1a.76.76 0 0 1 .4.2l-.1-.1c.4.1.7.1 1.1.2-.1 0-.2.1-.3.1l5.1 1.8c-.7-.1-1.4-.2-1.9-.3.7.3 1.4.6 2.2.8h-.4c.3.1.6.1.9.2-.2-.1-.3-.1-.5-.2.2 0 .7 0 1.3-.1.5.2 1 .3 1.5.5-.8-.1-1.5-.1-2.3-.2.6.2 1 .4 1.7.6.3-.1.5-.2.8-.4.6.2 1.1.4 1.7.5l1.3 1.3c-1.2-.5-2.7-1.1-3.8-1.5l-1.5.6c-.9-.5-1.8-1-2.6-1.5h-.3c.8.6 1.6 1.1 2.4 1.7-.1 0-.2.1-.3.1.4.2.8.3 1.1.5.2.1.3.2.5.3.2 0 .5.1.7.2 1.1.4 1.8.7 1.5.4-.1 0-.1-.1-.2-.1 1.3.3 2.7.7 4.1 1l.2.2c37.8 8.3 76 13.9 114.5 18.2 24.1 2.7 48.3 4.6 72.6 6 18.9 1.1 37.9 1.6 56.9 2 10.6.2 21.3 1.2 31.9.7l75.3-2.7c29.4-1.7 58.7-4.4 87.8-8h-.3l-.1-.1c.2 0 .4 0 .5.1h.1c-.2-.7-2.9-3.4-6.5-6.8 1 .4-1.3-2.2-2.5-2.4l-9.7-8.9h-26.9c-.4-.1-.8-.7-1.2-1l-27.9-1c-.7 0-1.4-.6-2.1-1l-11.2-.9c-.1.1-.2.1-.4 0-.1 0-.2 0-.4-.1l-26.9-2.1c-.4 0-.8-.6-1.1-.9-4-.6-7.9-1.1-11.9-1.6-1 .3-2.1.1-3.1-.4l-19-3-.2-.2c0 .1.1.1.1.2l-22-4-22.9-5c-.1-.1-.2-.2-.2-.3 0 .1.1.2.1.3l-21-5-13.5-3.6c-.4.1-.9 0-1.3-.4h-.1l-27-8-19.5-6.8c-.2 0-.4-.1-.5-.2l-25.6-8.9c-3.1-1.2-6.2-2.6-9.2-4l-16.2-7.1v-.1h-.1c-3.5-1.3-7.2-2.5-10.6-4.1-5.2-2.5-10.3-5.3-15.4-7.9l-.1-.1c0 .1 0 .1.1.2l-25.9-13v.1l-15-8-6-4-.4-.4-16.1-8.8c-.8-.5-1.8-.7-2.6-1.1-.9-.5-1.9-1.2-2.9-1.9l-10-6.9-12-8-28-20-13.9-10.1-26.9-23.2c-1.6-1.4-3.5-2.5-5.2-3.7l-14.6-14.1c-1.4-1.4-2.9-2.6-4.4-3.9l-23-23-27-30-11-13-11-14-11.1-15-11-15-10-15c-.3-1-.7-2-1-3v-.4l-10.1-15.2c-1-1.5-1.9-3-2.9-4.6v-1l-5.8-8.7-6.1-11.1h-.1a74.55 74.55 0 0 1-2-4l-5-9-5-10c-.2-1-.6-2-.9-3l-3-5-8-18c-.3-1-.7-1.9-1-2.9l-3-6-3.3-9.1c-.5-.5-1-.9-1.5-1.4-2.3-2.4-2.8-5.7-4.2-8.5-2.3-6.6-5.3-12.9-6.7-19.7.1-.5.2-.9.5-1.4.1 0 .1 0 .2-.1l-3-7.9-4-14-3-8-3-11-2-12c-.3-.3-.4-.7-.3-1.2l-2.7-10.9-2-11-4.7-32.4c-.2-1.8-.2-3.6-.3-5.5-.3-3.6-.8-7.2-.9-10.8 0-.9.1-1.8.2-2.7-.1-.4-.1-.8-.2-1.2-.1-1-.3-2 .2-2.9-.3-1.1-.7-2.2-.9-3.3l-3.2-22-5.8-35.5c-1.3-9.1-2-18.3-3-27.5L1145 3c-.2-2-.7-4-.3-5.9v-.5c-.5-1.4-1.1-2.7-1.2-4.1-.7-6.4-1.1-13-1.8-20.9zM1445 692.1c.3.2.8.4 1.1.6 1 .1 1.4.1 1.6.1-.8-.2-1.7-.4-2.7-.7zM1151.9-5.6v2.4l2.2-2c-.8 0-1.6-.2-2.2-.4zm8.8 26.6c0 .1 0 0 0 0zm1 9.9c0 .1.1.1.1.2-.1-.1-.1-.2-.1-.2zm.5 4.7v.1c.1.1.2.3.1.2 0-.1-.1-.2-.1-.3zm.6 4.8v.2c.1.1.2.3.2.2s-.1-.2-.2-.4zm4.1 25.1h-.4c.1.8.3 1.6.4 2.4V66zm138.2 267c.3.6.3.8.3.7-.1-.2-.2-.4-.3-.7zM2381 358.4s-.8.3-1.2.5c.4-.2.8-.3 1.2-.5zm63.4 157.1l-33 22-.1-.1v.1l-14.5 9.8c4.9-3 9.5-6.4 14.5-9.3 3.2-1.8 6.2-4 9.2-6 6.5-3.9 12.5-8.7 18.9-12.8 1.6-1.2 3.1-2.7 5.3-2.6.4-.2.7-.5 1.1-.7-.3.1-.6.1-.9.1-.2-.3-.4-.4-.5-.5zm-66.6 43.5c-.5.2-.9.3-1.4.5l-26.2 15.5c8.9-4.6 17.4-10 26-15.1.6-.3 1.1-.6 1.6-.9zm-28.6 16.3l.1.1h.1c-.1 0-.1-.1-.2-.1zm-1.4 1l-11.7 6.5c4-2.1 7.9-4.3 11.7-6.5zm-27.3 14.6l-15.6 7.8c5.5-2.1 10.5-5 15.6-7.8zm-23.8 11.4c-.2.1-.4.2-.5.2l-14.3 7.1a177.77 177.77 0 0 0 14.5-7.2s.2 0 .3-.1zm-21.5 10c-.3 0-.5.1-.8.1l-15.7 7.3-16.8 6.9c11-4.4 21.9-8.8 32.5-14 .2 0 .5-.2.8-.3zm-81.2 32c-.2 0-.4.1-.6.1 0 0-.1 0-.1-.1v.1l-9.9 3-11 4h-.1l.1.1-8.2 2.7c2.9-.6 5.6-1.6 8.4-2.6 3.8-1.2 7.5-2.4 11.1-3.9 3.4-.7 6.5-2.4 9.9-3.3.2 0 .3 0 .4-.1zm-30.7 10.2l-22.1 6.7c7.5-1.9 14.8-4.4 22.1-6.7zm-23.7 7.2l-10.1 2.7c3.5-.5 6.7-1.7 10.1-2.7zm-10.5 2.8l-13.5 2.9c-.1.2-.3.3-.5.5 4.5-1.9 9.5-1.5 14-3.4zm-694.2 21.4c.1.1.1.1.2.3-.1 0-.2-.1-.2-.3-.1.1 0 .1 0 0zm-.2.3c.4.4.8.7 1.2 1-.4-.5-.4-.5-.8-.9l2.9 1.7c.5.6 1.3 1.2 1.8 1.4s1 .3 1.5.5c.1 0 .1.1.2.1l-1.4-.3s-.1 0-.1-.1h.1c-.2 0-.4-.1-.6-.1 1.1.6 1.7 1 2.2 1.3.1 0 .3-.1.4-.1.7.3 1.3.6 1.9.9.1 0 .4.1.5.1.1.1.2.2.4.2-.3-.1-.6-.2-.8-.3-1.2-.2-1.8-.4-2.3-.7-.3.1-.7.2-1 .3-4.6-2.1-8.3-3.9-5.9-3.3.7.4 1.6.9 2 1.1.3.1.6.1.9.2-.4-.3-.4-.4-.8-.6.1 0 .3.1.4.1.2.3.2.2.5.5l1.7.3c-.2-.1-.4-.2-.7-.3.4.1.7.3 1.1.4-1.1-.6-2.3-1.4-3.6-2.2-.1-.1-.2-.2-.3-.2l1 1.2c-.2-.1-.5-.2-.7-.3l-1.8-1.5c0-.1.1-.3.1-.4zm3 3c.1.1.1.1.3.2-.2-.1-.2 0-.3-.2 0 .1 0 .1 0 0zm14.2 3.7l.4.4h-1.1c.2-.2.5-.3.7-.4zm1.6 2.5c.4.2.9.3 1.3.4.1.1.1.2.2.2z" fill="url(#J)"/><path d="M2444.62 516.477l22.992-15.6 38.787-27.595 76.808-53.896 60.192-42.993c15.187-10.6 30.797-20.6 46.487-30.506 14.7-9.2 29.792-17.993 44.688-26.803 7.302-4.312 14.393-8.996 22.093-12.407 9.1-4.102 13.202-11.907 16.6-20.2 4.604-11.192 6.112-23.097 5.106-35.1-.9-10.794-3.095-21.5-4.498-32.306-.688-5.2-1.1-10.504-1.587-16.007 2.407-1.903 4.498-3.703 6.8-5.2 12.7-8.9 26.008-17.198 38.1-26.9 12.7-10.107 24.8-21.194 32.888-35.613 5-8.9 6.694-18.495 5.106-28.4-.794-5-.106-9.602.794-14.207 3.704-18.4 10-36 17.595-53.1 8.6-19.394 17.806-38.604 26.802-57.8 2.1-4.498 4.7-8.706 7.1-13.098 1.508-1.7 3.095-3.307 4.498-5.2 7.488-10.4 14.605-21.087 25.003-29 2.302-1.694 4.392-3.996 8.6-3.996-.3 2.805 0 5.503-.794 7.805-3.2 8.494-6.403 17.092-10.292 25.4l-42.492 90.197c-8.387 18.3-15.187 37.2-18.997 57.096-.9 4.498-1.508 8.996-.6 13.8 2.1 11.907-1.587 22.7-8.202 32.596-8.387 12.7-19.394 22.913-31.406 31.9s-24.394 17.408-36.697 26.008l-6.588 4.392c.794 6.904 1.402 14.207 2.487 21.297 2.1 13.3 4.313 26.6 3.413 40.2-.794 12.7-4.312 24.607-12.012 34.792-1.8 2.408-4.392 4.604-7 6.112-28.495 17.092-57.705 33.204-85.592 51.303-30.003 19.5-58.7 40.903-88 61.408l-169.596 118.2c-68.7 46.7-142.9 82.708-221.506 109.694-64.9 22.305-131.205 39.2-198.303 52.888-33.787 6.907-67.706 12.596-101.9 16.512-27.807 3.095-55.588 5.687-83.5 7.4-28.707 1.7-57.493 2.592-86.306 2.908-40.1.293-80.194-1.587-120.2-5.104-48.603-4.208-96.9-10.4-144.7-20.797-14.287-3.095-28.4-7-42.412-11.112-7.9-2.302-15.293-2.486-22.807 1.005-2.1 1.005-4.313 1.8-6.5 2.5-7.408 2.486-14.393 3.2-22.304.6-62.388-20.2-122.3-45.8-177.798-81.2-27.596-17.594-53.392-37.412-77.4-59.7-.3-.293-.503-.795-.794-1.2 2.196-1.297 3.492.396 5.106 1.297 4.604 3.703 8.9 7.805 13.9 11.112 4.1 3.597 8.493 6.904 13 10 4.604 3.413 9.393 6.694 14.208 9.895 4.392 3.307 8.996 6.508 13.9 9.1 11.297 7.595 22.992 14.393 34.898 20.904 9.207 5.2 18.388 10.397 27.993 14.896 7.488 3.996 15.504 7.1 23.098 10.9 12.806 5.6 25.6 11.192 38.708 16.007 5.9 2.805 12.197 4.604 18.3 6.907 10.6 3.8 21.087 7.805 31.802 11.006 5.9 1.297 11.403 4.894 17.806 3 8.202-1.1 15.293-5.7 23.3-7.303 6.694-.7 13 .792 19.288 3.307 3.492 1.4 7.197 2.196 10.9 3.095 45.1 11.405 91 18.4 137.3 23.602 24.103 2.698 48.312 4.604 72.6 6.005 18.9 1.1 37.888 1.587 56.9 2 10.6.212 21.3 1.2 31.908.7l75.3-2.698c52.096-3.095 103.795-8.996 155.203-17.913 49.9-8.704 99.2-20.186 148.085-33.4 1.588-.396 3.2-.9 4.604-1.903 4.604-2.012 9.7-1.507 14.287-3.493 3.9-.502 7.488-2 11.297-3.095 7.7-1.906 15.187-4.498 22.807-6.907 3.2-.6 6.2-1.694 9.287-2.805 3.8-1.2 7.488-2.406 11.112-3.9 3.387-.686 6.5-2.406 9.895-3.307 6.906-2.196 13.8-4.602 20.505-7.197 7.1-2.486 13.996-5.3 21.008-7.9 13.202-5.3 26.5-10.397 39.2-16.693 7.594-2.805 14.896-6.298 22.013-10.214 2.196-1.2 4.392-2.302 6.694-3.095 9.896-3.413 18.388-9.7 27.887-13.813 6.112-3.307 12.197-6.508 18.097-10 9.393-4.708 18.203-10.397 27.2-15.688 5.794-3.097 11.006-7.1 16.695-10.397 6.297-3.493 12.1-7.9 18.3-11.6 3.2-1.8 6.2-3.996 9.207-6.008 6.5-3.9 12.488-8.704 18.9-12.806 1.667-1.163 3.175-2.673 5.37-2.566zM1278.723 327.38c-1.402-.792-3-1.4-3.995-2.486-4.7-5.11-9.393-10.216-13.705-15.69l-26.5-34.502c-3.492-4.602-6.588-9.5-9.8-14.21-2.7-1.108-3.8-3.597-5.106-5.9l-13.8-23.708c-7.488-15.398-15.187-30.612-21.907-46.406l-12.012-31.803c-1.005-3.095-1.905-6.295-3.307-9.286-4.604-15.794-9.7-31.508-12.197-47.888-.106-1.007-.3-2.012.212-2.908-.3-1.11-.688-2.196-.9-3.307l-3.2-21.986-5.794-35.512c-1.296-9.1-2-18.31-3-27.49L1157.2-8c.397.212.794.4 1.2.61l1.1 13.997c1.8 30.1 6.8 59.69 12.197 89.296 3.598 19.712 8.202 39 13.996 57.995 18.9 61.488 47.8 117.712 88.9 167.506 1.535 1.774 2.725 3.97 4.127 5.98z" class="G"/><linearGradient id="K" x1="1425.334" x2="2009.338" y1="187.692" y2="-51.471" gradientUnits="userSpaceOnUse"><stop offset=".093" stop-color="#ec1c24"/><stop offset=".171" stop-color="#ef4022"/><stop offset=".254" stop-color="#f15f21"/><stop offset=".325" stop-color="#f27220"/><stop offset=".374" stop-color="#f37920"/><stop offset="1" stop-color="#ee4023"/></linearGradient><path d="M1879.2-163.3c-5.3 0-9.9 2-13.3 6.9-4 4.3-6.4 9.5-7.8 15.2v.1c0-.1-.1-.1-.1-.2l-5.9 19h-.3l-7 27.9c0 .1.1.3.1.4-3.6 10.9-8.6 21-15 30.5L1811.1-43v-.1l-10 8v.2s0-.1-.1-.1l-9.9 7-.1-.1-16 9.2-17 7.8c0 .1 0 .1.1.2 0 0 0-.1-.1-.1l-18 6.9v.1l-11 3.6c0 .1.1.3.1.4-.1-.1-.1-.2-.2-.3l-12.8 3.4s-.1 0-.1-.1l-12.9 3s0-.1-.1-.1L1686 9l-20 2.7s0 .1.1.1h-.1l-19 1.2c0-.1-.1-.1-.1-.2-2.3.1-4.7.1-7 .1H1624l-11-.3-11.9-1v.1c0-.1 0-.1-.1-.2-2.3-.3-4.7-.5-7-.8v.1l-13-2.1v.1c0-.1 0-.1-.1-.2-1.3-.2-2.7-.5-4-.8v.1l-10.8-2.8-10.5-3-.6-.3-9-3.1s0 .1.1.1h-.1l-11.9-5.5-9.1-5.2-7-5.2c-.3-.4-.6-.8-1.1-1-1.9-1.4-3.9-2.6-5.8-4v-.1c-.5-.7-.9-1.4-1.5-2-12.3-12.5-18.9-27.3-18.6-45v-.1c-.2-8.6 1.9-16.6 4.6-24.5 2-6.5 4.4-12.8 6.6-19.2-.4 0-.7 0-1 .1l-6 9.9-4 6.9c-1.3 2.4-2.7 4.7-4 7.1-.7 1.3-1.3 2.6-2 3.9-.3 1-.7 1.9-1 2.9h-.1l-3 5-3 6.2c0 .6 0 1.2.2 1.8v.1s-.1 0-.1-.1c-.9 2-1.7 4.1-2.6 6.1-.2.2-.5.4-.7.8l-2.2 5.9.1.1c-.9 1.8-1.7 3.5-2.6 5.1-.4 1.7-.7 3.3-1.1 5 0 .1.1.2.1.3l-1.8 3.7c0 .6-.1 1.2-.1 1.8l-.2.2c-.7 2.3-1.3 4.7-2 7l-1.2 3-1.8 7c0 .7 0 1.4.1 2v.1c-.8 2.6-1.5 5.3-2 8 .1 1 .1 2 .1 3v.4c-.1-.2-.1-.3-.2-.5l-1.4 5-.6 6c0 .1 0 .1.1.2-.5 2.2-.9 4.6-1.3 6.7 0 1.3.1 2.7.1 4 0 .1.1.1.1.2l-.1-.1c-.3 1.7-.7 3.3-1.3 4.9l.3 2c.1.2.1.3.2.5-.1 2.2-.1 4.4-.2 6.6-.2.4-.5.7-.8 1.1 0 .9-.1 1.9-.1 2.9-.1 3.7-.1 7.3-.1 10.8v8l.1 8c-.1 0-.2.1-.3.3 0 .2.1.4.4.5.2.1.4.2.7.3v11.1l1.2 6c.1 2.4.1 4.6.1 6.9l.9 7.9 1.8 7.1c.1.1.1.2.2.2h-.1c-.1 1.6-.1 3.3-.2 5l2.1 10c0 .6.1 1.2.1 1.8.3.7.7 1.4.9 2.2 2 8.2 3.3 16.6 6 24.5 9 26.8 21.9 51.7 39 74.4v-.3c0 .1.1.1.1.2l12 15h.1l-.1.1 13.1 14c2.2 2.1 4.4 4.1 6.7 6.2 0 0 0 .1.1.1 1.4 1.2 2.7 2.5 3.9 3.7 0-.1.1-.2.1-.3 0 .1.1.2.1.3l8 7v.1c1.4 1 2.7 2 4 3 2.2 1.7 4.6 3.4 6.8 5v-.2c0 .1.1.2.1.3l6.9 4.8v.1c2.7 1.6 5.3 3.3 8 5v-.3c.1.2.2.4.3.5l8.1 4.9 11.7 6s0-.1.1-.1v.1c2 .9 4 1.9 5.9 2.8 0 0 .1 0 .1-.1v.1a51.1 51.1 0 0 0 4.7 1.9s0 .1.1.1c2.4.9 4.7 1.9 7.1 2.9.1 0 .1 0 .2.1h-.2l7.9 2.9.3-.3c0 .1-.1.2-.1.4l6.1 2.1h.1l14 4 3.7.9v-.3c.1.1.1.2.1.3 1.7.3 3.3.7 5 1l10 2c2 .3 4 .7 6 1 .9.5 1.7.6 2.5.4l11.4 1.5v.1l9.1 1v-.1c2.4.3 4.7.7 7 1.1 1 0 1.9-.1 2.9-.1 1.3.1 2.6.1 3.9-.1 0 .1.1.1.1.2l10-1c2.7-.3 5.4-.5 8.1-1 .3.1.6.1 1 .1l10.9-1.1c3-.4 6-.7 8.9-1.2l.1.1 16-2.9 5.9-1.1.1.1 19-4 18.1-5 28.8-9s0-.1.1-.1v.1c4-1.7 8-3.3 12-4.7 0-.1 0-.2.1-.3v.1c3.6-1.4 7.3-2.8 11.1-4.1 0-.1 0-.1-.1-.2l17.9-7.9v-.1l15.9-8.8s.1 0 .1.1l16-9.9v-.1c0 .1.1.1.1.2 3.4-2 6.7-4.1 10-6.1 0-.1 0-.2-.1-.3 0 0 0 .1.1.1l10.9-8 .1.1 20-16.9s0-.1-.1-.1h.1c.7-.3 1.7-.4 2.2-.9l16.7-17.1 13.9-16.1c0-.2 0-.3.1-.5.1.2.2.4.2.6l8-11 8.9-12.9c0-.1 0-.1-.1-.2l12-20.9 7.1-14.9v-.4l5.8-14.8v-.1c0 .1.1.1.1.2 4.3-9.6 6.6-19.7 8-30 .3-.4.8-.7 1.1-1l2.1-27.9c-.1-.2-.1-.3-.2-.5-.3-7.3-.3-14.6-1-21.8-1.1-12.4-4.9-24.1-11-35-.7-1.2-.7-2.6-1-3.9l-10.1-11.3-.8-4.9c-.1.9-.2 1.8-.4 3l-7.3-4.8-.6-1.5c-.5-.9-1.2-1.7-2.1-2.1-4.6-2-5.7-5.6-5.3-10.2.5-6.5-.6-13-1.5-19.4-2.8-20.1-9.6-38.7-20.8-55.7-3.7-3.8-7.1-7.8-11-11.3-6.5-5.8-13.4-11.2-20.1-16.7-8.1-6.1-17.4-9.9-26.9-13.2v.1c0-.1 0-.1-.1-.2-1.5-.6-3-1.3-4.5-1.8-3.5-1.1-7-2.1-10.5-3.1 0 .1.1.2.1.2l-.1-.1-15-3.7c-1.2-.3-2.5-.4-3.7-.4zM1477.7-63z" fill="url(#K)"/><linearGradient id="L" x1="1466.034" x2="1754.51" y1="194.836" y2="-236.271" gradientUnits="userSpaceOnUse"><stop offset=".11" stop-color="#f9a51a"/><stop offset=".211" stop-color="#fcb90f"/><stop offset=".34" stop-color="#fecc04"/><stop offset=".429" stop-color="#ffd300"/><stop offset=".835" stop-color="#f89c1c"/></linearGradient><path d="M1658.9-402.2c-1 .4-2 1-3 1-22.7.7-45.2 2.8-67.5 6.3-38.3 5.9-75.8 15.2-111.9 29.5-14.8 5.9-29.1 12.9-43.6 19.4v.1l-8.9 4.7-13 7.2-8.9 5.2h-.1l-12 7.8c-3.3 2.3-6.6 4.5-9.9 7l-.1-.1-6.9 5v.1l-.1-.1-5.1 3.9c.1 0 .1.1.2.1-.1 0-.1.1-.2.1l-6 4.7s-.1 0-.1-.1l-10.8 9.2-.1-.1c-2.9 2.8-5.8 5.4-8.9 8.2-.7.7-1.3 1.2-2 1.8l-5 5 .1.1c-.1 0-.1-.1-.2-.1l-7 7.1.1.1h-.1l-7 7.8c-.6.7-1.3 1.5-2 2.1l.1.1h-.1l-7.2 8.7c-1.9 2.5-3.7 4.9-5.8 7.3l.1.1-6.2 8.8c0 .1 0 .1.1.1h-.1c-1.3 2-2.6 3.9-3.9 5.8h-.1l-5.2 8.1a90.04 90.04 0 0 1-2.5 4.1l-4.5 7.9c-.8 1.4-1.5 2.8-2.3 4.1l-9.4 19.7v.1l-3.8 9.1-4.7 12.1-2.1 6-3 10-2.1 8-4.5 19.8-1.5 10.2c0 .1.1.1.1.1h-.1l-.9 5.7v.1c-.4 3-.7 6-1 9h.1c-.1 1.7-.1 3.4-.2 5.1h-.1c-.2 3.5-.5 7-.8 10.5 0 .1-.1.2-.1.4v8.1l.7 20.3s.1 0 .1-.1v.1c-.2.2-.2.5 0 .7h-.1l1.1 13.2 1.1 8.7h.1c0 .1 0 .1-.1.2.2 1.3.3 2.7.6 4a4.16 4.16 0 0 0 .3 3.1c1.6 8.3 2.7 16.7 4.7 24.9 16.2 66.9 50 124.1 97 173.9 11.8 12.4 24.4 23.9 36.6 35.9 3.9 2 6.7 5.5 10.1 8.1 45.2 36 95.7 61.9 150.8 78.3 29.8 8.8 60.2 14.2 91.2 16.4 17.5 1.2 34.9.4 52.4.7 2 .1 5 .9 5.3-2.8-1.9-2.4-4.6-1.6-7.1-1.8-3.1.1-6.1-.3-9.1-.9-4.6-.1-9.2-.8-13.8-1.6-2-.5-4.2-.3-6.2-1-3.3-.6-6.6-1.1-9.8-1.9-1.7-.4-3.4-.5-5.1-1-1.5-.3-2.9-.6-4.3-1.1l-13.5-3.8c-2.1-.7-4.1-1.2-6.1-2.1-2.5-1.2-5.3-1.9-7.9-3-2.4-1-4.8-1.8-7.1-2.9-1.7-.6-3.4-1.2-5-2.1-2.1-1-4.1-2-6.1-3.1-3.9-1.9-7.9-3.8-11.7-5.9-2.7-1.6-5.5-3.1-8.1-4.9-2.8-1.4-5.4-3.2-7.9-5a41.95 41.95 0 0 1-7-4.9c-2.4-1.5-4.6-3.3-6.8-5-1.3-1.1-2.9-1.9-4.1-3.2-2.3-2.5-5.5-4.1-7.7-6.7-1.5-1.4-2.8-2.8-4.3-4.2-2.5-1.8-4.8-3.8-6.9-6.1-4.4-4.5-8.3-9.5-12.8-14-4-5.1-8.5-9.9-12.2-15.3-4.3-6.1-8.7-12.1-12.5-18.6-13.3-22.8-25.1-46.1-30.3-72.3-.7-3.2-.6-6.7-3.1-9.3h-.4c.5-.6.5-1.2-.1-1.8l-.1-.1c.3-.1.5-.4.7-.8-.3-3.2 1-7-2.7-9.3 0 0-.1 0-.1-.1l.6-.3c.7-1.5.6-3 .3-4.5-.9-2.3 0-5.1-1.9-7.1-.2-.1-.4-.2-.6-.4 1.4-2.7 2.3-5.4-1-7.5h-.1c.2-.1.3-.3.5-.6.8-2 .6-4.1.6-6.2-.1-2.1-.6-4.1-1.6-6-.1-.2-.3-.4-.4-.6 2.1-3 1.1-6.3.7-9.4-.1-.6-.4-1-.8-1.4l-.9-.3c0-.2 0-.3-.1-.5 0 0-.1 0-.1-.1a3.04 3.04 0 0 0 .7-.5c.8-2.2.7-4.5.1-6.8-.2-.4-.4-.8-.6-1.1 1.6-2.5 1.6-4.9-.1-7.5.3-.2.5-.5.7-.9a21.3 21.3 0 0 0 0-9.4c-.1-.4-.3-.7-.5-1 .5-.8.5-1.5.1-2.2h.2c.7-.4 1.1-1 1.4-1.8.5-2 .4-4.2.3-6.3-.1-.8-.3-1.6-.6-2.3-.1-.2-.2-.3-.3-.5 1.1-1.4 1.3-3.1 1.7-4.7.1-1.4.1-2.8-1.2-3.8.2-.1.5-.2.7-.4 1.1-2 1.4-4.2 1.7-6.5-.1-2 .7-3.9.1-5.9-.1-.1-.3-.2-.4-.3 1.6-1.2 1.6-3.1 2-4.9 0-1.1-.1-2.1-.9-2.9.1 0 .3-.1.4-.1 2.3-2.1 2-5.1 2.6-7.8 0-.7-.2-1.5-.5-2.2 0-.1-.1-.1-.1-.2 2.7-1.6 2.9-3.9 1.5-6.7h.1c1.2-.6 1.8-1.8 2.1-3 .5-2.4 1.7-4.7 1.8-7.2 0-.6-.2-1.2-.5-1.9 1.9-.6 1.8-2.6 2.7-4 .4-1.5 1.1-3 .3-4.6 2.1-1 2.3-3.2 3.2-5.1.6-2.1 1.5-4 2.3-6 .7-2.6 2.3-4.7 2.9-7.3.2-.7.2-1.5.1-2.2 2.1-1.1 2.8-2.9 2.2-5.3 2.3-.8 2.8-3.2 3.7-5.2.3-1.1.7-2.2.3-3.3 2.1-.4 2.6-1.7 1.9-3.6h.1c2.8-1.6 4.2-4.1 4.5-7.3 0-.1-.1-.2-.1-.3 2.9-1.2 4.2-3.4 3.4-6.5l-.1-.1c.1 0 .2.1.3.1 3.6-2.4 5.1-6 6.1-9.9.2 0 .4-.1.6-.3l3-6 .1.1 6-10.1v-.1l1.1-1.7 6.9-9.3 5-5.9v-.1a172.73 172.73 0 0 0 5.9-6.2l.1.1c.6-.7 1.2-1.2 1.9-1.9l10-8.7c.1 0 .2-.1.4-.1l10.7-7.2c3-2 6-3.9 9.1-5.8v-.1l4.9-2.2 8.9-3.6h.2l12.8-4.4c-.1-.1-.2-.2-.4-.3.1 0 .2.1.4.1l18-4.9c3.4-.7 6.7-1.3 10.1-1.9-.1-.1-.1-.2-.2-.2.1 0 .1.1.2.1l22-2.9c3.9-.4 7.8-.6 11.7-1 .7.4 1.5.8 2.3 1.1 1.8.5 3.7.4 5.5.4 15-.2 29.9 0 44.8 2 17.4 2.3 34.7 4.9 50.9 11.9 13.3 5.7 26.9 9.7 41.2 11.6 6.8.9 13.7 1 20.4-.1 9.3-1.5 11.3-7.2 5.1-14.3-2.1-2.4-3.3-5.2-4.2-8.3-2.8-9.9-.1-18.4 6.6-25.8 2.2-2.5 4.4-5 5.9-8 1.3-2.8 1.7-5.5-1-7.7-1.8-2.6-3.3-5.8-5.6-7.9-6.5-6-13-11.9-20.1-17.1l-45.7-32.1c-1.7-1.2-3-3-4.5-4.5-4.6-3.9-9.1-7.9-12.9-12.5-4.3-5.1-3.3-8.7 2.8-11.1 2.8-1.1 5.7-1.9 8.7-2.2 10.4-1.2 20.8-1.7 31.3-1.2 15.5.8 30.8 2.9 45.9 6.5 46.8 11.3 87.7 34 124.5 64.4 5 4.1 10.5 7.7 14.5 12.9 4.6 3.9 9.7 7.3 13.9 11.7 10.6 11 21.2 22.1 30.9 33.9 20.5 25.1 38.3 51.8 50.5 82.1 5.3 13.2 11.8 26.1 21.4 36.9 2.4 2.7 6.1 4.3 9.2 6.4 3.8-.1 4.4-3.1 4.8-5.9.7-4.1.5-8.3-.1-12.4-3.5-23.6-9.7-46.6-17.8-69-13.7-37.7-32.5-72.4-59-102.8l-11.4-12.4c-15.6-16.3-32.1-31.5-50.2-44.9-32.7-24.2-68.5-42.7-106.7-56.4-35.2-12.6-71.4-21.1-108.5-25.2-16.3-1.8-32.8-2.7-49.2-4-1-.1-2-.7-3-1zM1251.6-24.5c.1 0 .1.1.2.1h-.2z" fill="url(#L)"/><path d="M1389.635 215.278c1.005.293 2.196.293 2.9.9 28.3 23.387 59.107 42.887 92.206 58.8 34.104 16.297 69.796 28.204 106.996 35.108 16.695 3.097 33.787 5.107 50.693 6.192 17.912 1.2 35.904.795 53.8 1.005 1.005 0 2.1-.6 3.2-.9.794-.9 1.8-1.2 3-1.297 1.402-.2 2.805-.104 4.1-.104 3.307 0 6.588 0 9.8-.795 3-.502 6.112.106 9.102-.792 3.598-.4 7.197-.795 10.795-1.404 3 0 6.006-.9 8.996-1.1a419.35 419.35 0 0 0 15.901-2.698c2.1-.293 4.207-.795 6.297-1.2 6.2-1.2 12.488-2.408 18.6-3.996 6.112-1.4 12.197-2.9 18.203-4.602 5.397-1.404 10.795-3 16.007-5.107 4.498-.795 8.387-3.203 12.806-4.208 4.313-.9 8.202-2.9 12.303-4.498 3.704-1.2 7.1-2.988 10.6-4.498 6.297-1.797 11.694-5.687 17.806-7.805 5.292-3.095 10.9-5.687 16.192-8.704 5.503-3.095 11.006-6.112 16.113-9.8 3.307-2.012 6.5-4.312 9.7-6.404 3.9-2.406 7.408-5.3 11.192-7.805 7-5.3 13.705-10.9 20.187-16.693 6.906-5.293 12.488-12.1 18.812-18.1 4.7-5.2 9.393-10.504 13.8-16.007 2.7-3.597 5.794-7 8.202-10.794 3.095-4.314 6.006-8.813 8.9-13.205 4.313-6.798 8.705-13.386 12.012-20.7 2.593-4.894 5-9.8 7-15.002 2.302-4.894 4.313-10 6.006-15.188 3.493-9.8 5.9-19.8 7.9-30.004 1.588-9.286 2.805-18.6 2.408-28.098 1.1-20.1-2.196-39.2-11.694-57.096-.688-1.2-2.408-2.988.212-4.312 12.806 8.994 20.108 21.906 24.897 36.405C2051.892 49.8 2052.8 69.3 2050.2 89c-6.694 51.487-30.294 94.905-65.087 132.608-40.798 44.107-91.307 72.6-148.006 90.9-35.798 11.5-72.495 18.205-109.986 21.087-101.8 7.992-195.1-17.092-280.402-72.9-19.7-12.912-37.994-27.492-55.297-43.392-.9-.634-1.296-1.43-1.8-2.038zm262.78-412.003c8.705 0 17.303-.2 26.008.212 24.394 1.005 48.603 3.996 71.807 12 9.7 3.413 19.208 7.303 29.104 10.214 10.9 3.2 22.092 4.604 33.496 3.706 3.493-.293 7-1.5 9.895-2.196 1.693-4.102 1.1-7.197-1.402-9.2-5.6-4.498-6.006-10.796-6.694-17-.794-7.992 2.9-14.393 8-20.2l4.8-5.7c2.196-2.698 2.593-5.7 1.2-8.813l9.895 7.1c.688.505 1.2 1.2 1.693 1.8 10.107 11.192 7.302 15.188.106 22.5-8.387 8.385-10.292 18.386-6.8 29.392.794 2.595 2.593 4.788 3.995 7.197 1.402 2.196 2.9 4.314 4.1 6.114-1.8 5.2-5.688 5.793-9.498 6.293-10.9 1.297-21.696.212-32.094-2.6-9.287-2.486-18.388-5.692-27.305-9.2-14.5-5.687-29.606-8.888-44.9-11.112-22.5-3.2-45.005-3.993-67.706-2.302-26.802 2.092-52.704 7.702-76.808 19.712-39.9 19.896-64.002 52.492-73.5 95.804-3.307 15.108-.9 29.794 7 43.312.397.7.503 1.502.794 2.302-3.413.7-4.895-2.1-7.1-3.703-13.308-12.992-20.796-28.603-20.293-47.5 0-13.6 4.604-26.088 9.287-38.604.6-1.587 1.508-2.988 1.8-4.604.688-2.406 2.1-4.496 3.413-6.588 1.905-3.413 3.9-6.798 6.006-10.105a16.3 16.3 0 0 0 1.402-2.302c2.1-3.097 4.392-6.112 6.694-9.103 1.508-2.196 3.2-4.206 5.106-6.005 2.1-1.906 3.995-3.996 6.006-6.005l2.302-2.302c3-3.413 6.8-5.902 10.107-8.8 3.704-2.196 6.906-5.107 10.7-7.093 3.2-1.797 6.297-3.8 9.287-5.9 1.587-.9 3.307-1.694 5.106-2.408 3.2-.9 6.2-2.302 9.207-3.8 4.207-1.587 8.308-3.2 12.594-4.604 6.006-1.903 11.906-3.703 18.097-5 3.413-.686 6.8-1.797 10.292-2.1 7.197-1.587 14.5-2.406 21.907-2.988 4.313-.502 8.625-2.118 12.9.184zm100.197-98.7c-.688-.106-1.587 0-2.1-.396-4.207-3.8-8.705-7.303-12.303-11.6-4.895-5.793-3.598-10.506 3.8-12.806 5.292-1.696 11.006-2.486 16.5-3.2 4.895-.7 9.895-1.005 14.896-.9 6.112 0 12.303.3 18.388 1.005 14.605 1.696 29.2 3.9 43.4 7.805 24.3 6.588 47.307 16.2 69.188 28.706 19.288 11.006 37.094 23.998 54 38.1 2.7 2.196 5.292 4.498 7.805 7.013.688.686.688 2.1 1.1 3.095-10.7-7.593-21.087-15.504-32.094-22.595-31.908-20.6-66.304-35.004-103.795-41.698-20.4-3.597-40.904-5.213-61.594-2.486-4.1.502-8.096 1.694-12.012 2.988-3.095.953-5.397 3.15-5.212 6.958zm340.805 227.7c3.493-2.1 4.313-5.503 3.995-8.996-.794-8.388-1.508-16.908-3.307-25.1-7.197-34.605-18.6-67.812-35.4-99.004-10.213-18.9-21.907-36.804-35.507-53.5-.794-1.005-1.2-2.302-1.8-3.413 1.296 1.005 2.805 1.8 3.9 2.988 43.894 47.598 71.7 103.503 85.195 166.685 2.1 9.8 4.498 19.5 3.9 29.607-.212 3.095-.503 6.005-4.313 7.805-8.334-2.673-12.144-10.268-16.642-17.066zm-93 43.1l-8-5.61v-9.71c-.9-24.7-7-47.994-20.188-69.107-.608-1.005-2.9-1.906-.794-3.6 10.292 8.494 17.806 19.104 23.706 30.905 9.392 18.81 13.996 38.788 14.393 59.9.397 1.11.688 2.196-.397 3.49-3.942-.686-6.323-3.387-8.73-6.272z" class="J"/></g><g font-weight="700"><text x="2800" y="351.461" letter-spacing="10" word-spacing="0" xml:space="preserve" fill="#a1cc3a" font-size="1350" font-family="Times New Roman"><tspan x="2800" y="351.461">FinByz</tspan></text><text x="4413" y="829.191" letter-spacing="10" word-spacing="0" xml:space="preserve" fill="#333" font-size="556.155" font-family="Arial"><tspan x="4413" y="829.191">Tech</tspan></text></g></svg>
